<?xml version="1.0" encoding="UTF-8" standalone="no"?>
<!-- Created with Inkscape (http://www.inkscape.org/) -->

<svg
   xmlns:dc="http://purl.org/dc/elements/1.1/"
   xmlns:cc="http://creativecommons.org/ns#"
   xmlns:rdf="http://www.w3.org/1999/02/22-rdf-syntax-ns#"
   xmlns:svg="http://www.w3.org/2000/svg"
   xmlns="http://www.w3.org/2000/svg"
   xmlns:xlink="http://www.w3.org/1999/xlink"
   xmlns:sodipodi="http://sodipodi.sourceforge.net/DTD/sodipodi-0.dtd"
   xmlns:inkscape="http://www.inkscape.org/namespaces/inkscape"
   width="256"
   height="256"
   viewBox="0 0 67.733332 67.733335"
   version="1.1"
   id="svg8"
   inkscape:version="0.92.1 unknown"
   sodipodi:docname="icon.svg"
   inkscape:export-filename="/home/vit/ProjectG70/godot/food_and_poison/icon.png"
   inkscape:export-xdpi="96"
   inkscape:export-ydpi="96">
  <defs
     id="defs2">
    <linearGradient
       inkscape:collect="always"
       id="linearGradient5623">
      <stop
         style="stop-color:#8e5534;stop-opacity:1"
         offset="0"
         id="stop5619" />
      <stop
         style="stop-color:#5a4031;stop-opacity:1"
         offset="1"
         id="stop5621" />
    </linearGradient>
    <linearGradient
       inkscape:collect="always"
       id="linearGradient5190">
      <stop
         style="stop-color:#f2b251;stop-opacity:1"
         offset="0"
         id="stop5186" />
      <stop
         id="stop5196"
         offset="0.06512654"
         style="stop-color:#f0ab44;stop-opacity:1;" />
      <stop
         id="stop5194"
         offset="0.89999998"
         style="stop-color:#ef9b20;stop-opacity:1;" />
      <stop
         style="stop-color:#c97e0e;stop-opacity:1"
         offset="1"
         id="stop5188" />
    </linearGradient>
    <linearGradient
       inkscape:collect="always"
       id="linearGradient5182">
      <stop
         style="stop-color:#008000;stop-opacity:1;"
         offset="0"
         id="stop5178" />
      <stop
         style="stop-color:#00c600;stop-opacity:1"
         offset="1"
         id="stop5180" />
    </linearGradient>
    <filter
       inkscape:collect="always"
       style="color-interpolation-filters:sRGB"
       id="filter4890"
       x="-0.044400211"
       width="1.0888004"
       y="-0.044399787"
       height="1.0887996">
      <feGaussianBlur
         inkscape:collect="always"
         stdDeviation="0.41607734"
         id="feGaussianBlur4892" />
    </filter>
    <clipPath
       clipPathUnits="userSpaceOnUse"
       id="clipPath4897">
      <path
         id="path4899"
         d="m -263.08988,93.204646 c -0.45685,0.01368 -0.89499,0.200957 -1.17874,0.541571 -0.2879,0.345538 -0.25943,0.387276 -0.57826,0.01447 -0.287,-0.335495 -0.74954,-0.480645 -1.20457,-0.46767 -0.45892,0.01365 -0.86884,0.211738 -1.16065,0.521414 -0.29181,0.309671 -0.46535,0.730676 -0.45167,1.189591 0.0193,0.641173 0.39888,1.186696 0.93895,1.447974 0.78828,0.372592 0.88339,-0.01593 0.90744,1.059884 v 0.0093 c 0.95007,-0.0374 1.90041,0.165955 2.76677,0.627354 l -0.017,-0.577745 c -0.0342,-1.148117 -0.14634,-0.955286 0.81804,-1.241266 0.53481,-0.289584 0.89062,-0.863182 0.87126,-1.51257 -0.0274,-0.917789 -0.79372,-1.639673 -1.71152,-1.612304 z m -2.73006,4.984192 c -1.28979,0.05751 -2.57958,0.629338 -3.60754,1.657263 -2.05627,2.055879 -2.28651,5.158959 -0.23048,7.215059 1.01957,1.015 2.40958,1.57008 3.84783,1.53428 l 2.18591,2.18591 c 0.37108,-0.0659 0.74607,-0.1759 1.11725,-0.32815 l -0.98857,-0.98908 c -0.13015,-0.13015 -0.13013,-0.33908 0,-0.46922 l 0.14469,-0.1447 c 0.13015,-0.13016 0.3396,-0.13015 0.46974,0 l 1.19683,1.19683 c 0.35304,-0.2077 0.69191,-0.45139 1.00924,-0.72554 l -1.24799,-1.24799 c -0.13014,-0.13015 -0.13017,-0.3406 0,-0.47077 l 0.21653,-0.21652 c 0.13013,-0.13013 0.3396,-0.12964 0.46974,5.3e-4 l 1.25263,1.25263 c 0.24094,-0.27383 0.45917,-0.56462 0.65112,-0.86713 l -1.23506,-1.23506 c -0.13015,-0.13016 -0.12962,-0.34012 5.3e-4,-0.47026 l 0.14418,-0.14418 c 0.13016,-0.13016 0.33958,-0.13066 0.46973,-5.3e-4 l 1.04955,1.04955 c 0.19754,-0.43629 0.33721,-0.88095 0.41496,-1.31981 l -2.18539,-2.18488 c 0.0358,-1.43999 -0.52006,-2.83221 -1.53789,-3.851445 -1.02797,-1.027927 -2.31775,-1.484299 -3.60753,-1.426787 z m 2.0717,2.739882 c 0.35317,7e-5 0.70625,0.1346 0.97565,0.40411 0.53865,0.53888 0.53863,1.41243 0,1.9513 -0.53888,0.53862 -1.41242,0.53863 -1.95129,0 -0.53904,-0.53881 -0.53933,-1.41277 0,-1.95181 0.26953,-0.2694 0.623,-0.40367 0.97617,-0.4036 z m -10.52236,0.6811 c -0.45892,-0.0136 -0.8799,0.15987 -1.1896,0.45165 v 0 c -0.30969,0.29178 -0.50826,0.70173 -0.52191,1.16065 -0.013,0.45506 0.13213,0.91761 0.46768,1.20458 0.37279,0.31882 0.33157,0.29086 -0.014,0.57878 -0.3406,0.28374 -0.52789,0.72188 -0.54157,1.17873 -0.0274,0.91783 0.69453,1.68365 1.61231,1.71101 0.64942,0.0194 1.22299,-0.33645 1.51257,-0.87126 0.28599,-0.96437 0.0932,-0.85222 1.24127,-0.81804 l 0.57774,0.0176 c -0.46127,-0.86621 -0.66463,-1.81693 -0.62735,-2.76676 l -0.01,-5.3e-4 c -1.07585,-0.024 -0.68786,-0.11912 -1.0604,-0.90743 -0.26127,-0.54008 -0.80679,-0.91984 -1.44798,-0.93896 z m 19.07843,0.56689 c -0.6494,-0.0194 -1.22299,0.33644 -1.51257,0.87126 -0.28599,0.96438 -0.0931,0.85276 -1.24127,0.81856 l -1.39991,-0.0413 1.34151,1.34203 a 0.68593737,0.68593737 0 0 1 0.19069,0.60462 c -0.0498,0.28122 -0.12354,0.56149 -0.21601,0.83974 l 0.14263,0.004 c 1.07585,0.024 0.68683,0.11965 1.05937,0.90795 0.26126,0.54012 0.80731,0.91985 1.44849,0.93896 0.91783,0.0274 1.68373,-0.69445 1.71101,-1.6123 0.013,-0.45507 -0.13215,-0.91762 -0.46768,-1.20458 -0.37284,-0.31882 -0.33108,-0.29132 0.0145,-0.57929 0.34062,-0.28371 0.52787,-0.72137 0.54156,-1.17822 0.0274,-0.91781 -0.6945,-1.68417 -1.6123,-1.71153 z m -11.77294,1.96784 c 0.35327,0 0.7067,0.13504 0.97618,0.40462 0.5388,0.53905 0.5385,1.41299 0,1.95182 -0.5388,0.539 -1.41224,0.53879 -1.9513,0 -0.53917,-0.53897 -0.53915,-1.41285 0,-1.95182 0.2695,-0.26958 0.6224,-0.40462 0.97565,-0.40462 z m 2.77297,0.93741 2.08308,0.55758 -1.52446,1.52498 z m -1.25678,4.84466 0.0419,1.40095 c 0.0342,1.1481 0.14584,0.95528 -0.81854,1.24127 -0.53483,0.2896 -0.89011,0.86319 -0.87075,1.51257 0.0274,0.91779 0.7932,1.63965 1.71101,1.6123 v 0 c 0.45686,-0.0136 0.89458,-0.201 1.17823,-0.54157 0.28791,-0.34558 0.26049,-0.38732 0.57929,-0.0145 0.28699,0.33549 0.74954,0.48064 1.20458,0.46767 0.91786,-0.0273 1.63968,-0.79318 1.6123,-1.71101 -0.0191,-0.64117 -0.39886,-1.18669 -0.93896,-1.44797 -0.78827,-0.37259 -0.88388,0.0159 -0.90795,-1.05989 l -0.004,-0.14676 c -0.27911,0.0929 -0.56046,0.16698 -0.84232,0.21705 a 0.68593737,0.68593737 0 0 1 -0.60514,-0.19017 z"
         style="opacity:1;vector-effect:none;fill:#913d00;fill-opacity:1;fill-rule:nonzero;stroke:none;stroke-width:2.30282021;stroke-linecap:round;stroke-linejoin:round;stroke-miterlimit:4;stroke-dasharray:none;stroke-dashoffset:0;stroke-opacity:1"
         inkscape:connector-curvature="0" />
    </clipPath>
    <filter
       inkscape:collect="always"
       style="color-interpolation-filters:sRGB"
       id="filter5166"
       x="-0.14788936"
       width="1.2957788"
       y="-0.14972192"
       height="1.2994438">
      <feGaussianBlur
         inkscape:collect="always"
         stdDeviation="0.75416642"
         id="feGaussianBlur5168" />
    </filter>
    <linearGradient
       inkscape:collect="always"
       xlink:href="#linearGradient5182"
       id="linearGradient5184"
       x1="-284.33258"
       y1="102.81474"
       x2="-268.26859"
       y2="81.742554"
       gradientUnits="userSpaceOnUse"
       gradientTransform="matrix(1.0523843,0,0,1.0523843,316.43178,156.24291)" />
    <linearGradient
       inkscape:collect="always"
       xlink:href="#linearGradient5190"
       id="linearGradient5192"
       x1="-955.35718"
       y1="359.66257"
       x2="-1038.9286"
       y2="440.73398"
       gradientUnits="userSpaceOnUse"
       gradientTransform="matrix(0.27844334,0,0,0.27844334,316.43178,156.24291)" />
    <filter
       inkscape:collect="always"
       style="color-interpolation-filters:sRGB"
       id="filter5355"
       x="-0.12606251"
       width="1.252125"
       y="-0.16466245"
       height="1.3293248">
      <feGaussianBlur
         inkscape:collect="always"
         stdDeviation="5.9638224"
         id="feGaussianBlur5357" />
    </filter>
    <filter
       inkscape:collect="always"
       style="color-interpolation-filters:sRGB"
       id="filter5597"
       x="-0.080400221"
       width="1.1608005"
       y="-0.080399781"
       height="1.1607996">
      <feGaussianBlur
         inkscape:collect="always"
         stdDeviation="1.644718"
         id="feGaussianBlur5599" />
    </filter>
    <clipPath
       clipPathUnits="userSpaceOnUse"
       id="clipPath5605">
      <path
         style="opacity:1;vector-effect:none;fill:url(#linearGradient5609);fill-opacity:1;fill-rule:nonzero;stroke:none;stroke-width:0.40456796;stroke-linecap:round;stroke-linejoin:round;stroke-miterlimit:4;stroke-dasharray:none;stroke-dashoffset:0;stroke-opacity:1"
         d="m -289.38866,91.452779 c -1.27457,1.274567 -1.68904,2.912462 -0.41444,4.187045 2.09598,2.095995 4.60965,1.28914 5.90923,0.470516 l 3.22776,2.843321 -0.44918,0.449183 c -2.23097,2.230956 -2.65137,6.561316 -0.48104,9.197706 l 12.79639,15.54451 c 2.44961,2.97564 7.11335,2.72483 9.8387,-5.3e-4 l 14.264,-14.264 c 2.72537,-2.72537 2.97563,-7.38857 0,-9.83819 l -15.54452,-12.796399 c -2.63636,-2.170342 -6.96616,-1.750494 -9.19718,0.480515 l -0.44916,0.449168 -2.84329,-3.227771 c 0.81865,-1.299605 1.72736,-3.711276 -0.47056,-5.909205 -1.27458,-1.274582 -2.91245,-0.860139 -4.18706,0.414462 z"
         id="path5607"
         inkscape:connector-curvature="0"
         sodipodi:nodetypes="ssccsccssccsccsss" />
    </clipPath>
    <linearGradient
       inkscape:collect="always"
       xlink:href="#linearGradient5182"
       id="linearGradient5609"
       gradientUnits="userSpaceOnUse"
       x1="-284.33258"
       y1="102.81474"
       x2="-268.26859"
       y2="81.742554" />
    <linearGradient
       inkscape:collect="always"
       xlink:href="#linearGradient5623"
       id="linearGradient5625"
       x1="-261.39328"
       y1="-146.59364"
       x2="-261.46008"
       y2="-141.58235"
       gradientUnits="userSpaceOnUse"
       gradientTransform="matrix(1.0523843,0,0,1.0523843,113.27064,334.23148)" />
    <filter
       inkscape:collect="always"
       style="color-interpolation-filters:sRGB"
       id="filter6881"
       x="-0.11715909"
       width="1.2343182"
       y="-0.11804092"
       height="1.2360818">
      <feGaussianBlur
         inkscape:collect="always"
         stdDeviation="6.5176522"
         id="feGaussianBlur6883" />
    </filter>
  </defs>
  <sodipodi:namedview
     id="base"
     pagecolor="#ffffff"
     bordercolor="#666666"
     borderopacity="1.0"
     inkscape:pageopacity="0.0"
     inkscape:pageshadow="2"
     inkscape:zoom="1.4"
     inkscape:cx="118.86808"
     inkscape:cy="101.0111"
     inkscape:document-units="mm"
     inkscape:current-layer="layer1"
     showgrid="false"
     inkscape:snap-global="false"
     inkscape:window-width="1920"
     inkscape:window-height="1055"
     inkscape:window-x="0"
     inkscape:window-y="0"
     inkscape:window-maximized="1"
     units="px" />
  <metadata
     id="metadata5">
    <rdf:RDF>
      <cc:Work
         rdf:about="">
        <dc:format>image/svg+xml</dc:format>
        <dc:type
           rdf:resource="http://purl.org/dc/dcmitype/StillImage" />
        <dc:title></dc:title>
      </cc:Work>
    </rdf:RDF>
  </metadata>
  <g
     inkscape:label="Layer 1"
     inkscape:groupmode="layer"
     id="layer1"
     transform="translate(0,-229.26665)">
    <path
       inkscape:connector-curvature="0"
       id="path4728"
       transform="matrix(0.28088712,-0.27879403,0.28088712,0.27879403,317.17805,-158.30136)"
       d="m -1269.5354,176.70763 c -5.3474,0 -9.0941,4.32944 -9.6517,9.65175 l -1.391,13.27734 h -5.3145 c -5.0453,0 -9.1074,2.42144 -9.1074,7.4668 0,4.66528 4.6517,11.60549 9.1504,12.62695 l 1.4219,8.88672 h -1.8575 c -9.2257,0 -15.7639,7.46958 -16.6543,16.65234 l -5.25,54.14258 c -1.0049,10.36442 8.3839,18.79492 18.7969,18.79492 h 54.5 c 10.4131,0 19.7998,-8.4305 18.7949,-18.79492 l -5.25,-54.14258 c -0.8903,-9.18276 -7.4264,-16.65234 -16.6523,-16.65234 h -1.8574 l 1.4219,-8.88672 c 4.4988,-1.02146 9.1503,-7.96167 9.1503,-12.62695 0,-5.04536 -4.062,-7.4668 -9.1074,-7.4668 h -5.3164 l -1.391,-13.27734 c -0.5567,-5.31409 -4.3043,-9.65175 -9.6517,-9.65175 z"
       style="opacity:0.50899999;vector-effect:none;fill:#000000;fill-opacity:1;fill-rule:nonzero;stroke:#000000;stroke-width:7.49858284;stroke-linecap:round;stroke-linejoin:round;stroke-miterlimit:4;stroke-dasharray:none;stroke-dashoffset:0;stroke-opacity:1;filter:url(#filter6881)"
       sodipodi:nodetypes="sscssccsccssccsccsscsss" />
    <rect
       ry="4.1811767"
       y="177.48003"
       x="-168.586"
       height="14.766649"
       width="14.766649"
       id="rect4730"
       style="opacity:1;vector-effect:none;fill:url(#linearGradient5625);fill-opacity:1;fill-rule:nonzero;stroke:#fefefe;stroke-width:3.00317979;stroke-linecap:round;stroke-linejoin:round;stroke-miterlimit:4;stroke-dasharray:none;stroke-dashoffset:0;stroke-opacity:1"
       transform="rotate(-45)" />
    <path
       style="color:#000000;clip-rule:nonzero;display:inline;overflow:visible;visibility:visible;opacity:1;isolation:auto;mix-blend-mode:normal;color-interpolation:sRGB;color-interpolation-filters:linearRGB;solid-color:#000000;solid-opacity:1;fill:#000000;fill-opacity:1;fill-rule:evenodd;stroke:none;stroke-width:0.26458332px;stroke-linecap:butt;stroke-linejoin:miter;stroke-miterlimit:4;stroke-dasharray:none;stroke-dashoffset:0;stroke-opacity:1;filter:url(#filter5166);color-rendering:auto;image-rendering:auto;shape-rendering:auto;text-rendering:auto;enable-background:accumulate"
       d="m -277.93061,79.356584 c 0,-0.472472 -1.2048,-0.921323 -1.2048,-0.921323 l -11.57552,11.339288 v 0.425222 c 0,0 0.94489,0.874071 1.32292,0.732328 0.37798,-0.14174 10.93768,-12.544083 10.93768,-12.544083 z"
       id="path4908"
       inkscape:connector-curvature="0"
       sodipodi:nodetypes="ccccccc"
       transform="matrix(1.0523843,0,0,1.0523843,316.43178,156.24291)" />
    <path
       inkscape:connector-curvature="0"
       style="opacity:1;vector-effect:none;fill:#008000;fill-opacity:1;fill-rule:nonzero;stroke:#ffffff;stroke-width:4.97098923;stroke-linecap:round;stroke-linejoin:round;stroke-miterlimit:4;stroke-dasharray:none;stroke-dashoffset:0;stroke-opacity:1"
       d="m 11.500661,252.92688 c -1.428811,1.42881 -1.893439,3.26492 -0.464617,4.69375 1.321195,1.32119 4.603971,1.96928 6.167256,0.98455 l 2.919356,2.11401 -0.526023,0.52603 c -2.612692,2.61268 -2.348922,6.57963 -5.58e-4,9.43231 l 13.846178,16.81974 c 2.650577,3.21975 7.696939,2.94836 10.645856,-5.6e-4 l 15.434184,-15.43418 c 2.94896,-2.94895 3.219749,-7.99471 0,-10.64529 L 42.702551,247.57106 c -2.852656,-2.34839 -6.818998,-2.61276 -9.431752,-2e-5 l -0.526003,0.52601 -2.114019,-2.91935 c 0.984789,-1.56332 0.336626,-4.84605 -0.984558,-6.16724 -1.428822,-1.42882 -3.264907,-0.96422 -4.69375,0.46461 z"
       id="path4732" />
    <path
       sodipodi:nodetypes="ssccsccssccsccsss"
       inkscape:connector-curvature="0"
       id="path4734"
       d="m 11.883698,252.48638 c -1.341327,1.34133 -1.777509,3.06503 -0.436161,4.40638 2.205797,2.20579 4.851123,1.35667 6.218791,0.49516 l 3.396844,2.99227 -0.47272,0.47271 c -2.347827,2.34783 -2.79025,6.90503 -0.506239,9.67952 l 13.46673,16.3588 c 2.577931,3.13152 7.485978,2.86757 10.354094,-5.3e-4 l 15.011209,-15.01121 c 2.868137,-2.86814 3.131507,-7.77562 0,-10.35356 L 42.557438,248.05919 c -2.774464,-2.28404 -7.331078,-1.84219 -9.678958,0.50568 l -0.472699,0.4727 -2.992244,-3.39686 c 0.861534,-1.36768 1.817867,-3.90568 -0.4952,-6.21875 -1.341348,-1.34135 -3.065027,-0.90519 -4.406386,0.43617 z"
       style="opacity:1;vector-effect:none;fill:url(#linearGradient5184);fill-opacity:1;fill-rule:nonzero;stroke:none;stroke-width:0.42576095;stroke-linecap:round;stroke-linejoin:round;stroke-miterlimit:4;stroke-dasharray:none;stroke-dashoffset:0;stroke-opacity:1" />
    <path
       id="path5359"
       d="m -289.75263,91.871355 c -1.35769,1.357687 -1.79919,3.102405 -0.44149,4.460108 1.25543,1.255426 4.3748,1.871261 5.86027,0.93554 l 2.77404,2.008783 -0.49984,0.499848 c -2.48264,2.482626 -2.232,6.252116 -5.3e-4,8.962796 l 13.15696,15.98251 c 2.51864,3.05948 7.31381,2.8016 10.11594,-5.3e-4 l 14.66592,-14.66592 c 2.80217,-2.80216 3.05948,-7.59676 0,-10.115398 l -15.98251,-13.156967 c -2.71066,-2.231495 -6.47957,-2.482697 -8.96227,-1.2e-5 l -0.49982,0.499826 -2.00879,-2.774041 c 0.93577,-1.485503 0.31987,-4.604824 -0.93555,-5.860247 -1.3577,-1.357704 -3.10239,-0.916228 -4.46011,0.441484 z"
       style="opacity:0.56000001;vector-effect:none;fill:none;fill-opacity:1;fill-rule:nonzero;stroke:#000000;stroke-width:4.72354937;stroke-linecap:round;stroke-linejoin:round;stroke-miterlimit:4;stroke-dasharray:none;stroke-dashoffset:0;stroke-opacity:1;filter:url(#filter5597)"
       inkscape:connector-curvature="0"
       clip-path="url(#clipPath5605)"
       transform="matrix(1.0523843,0,0,1.0523843,316.43178,156.24291)" />
    <path
       id="path4736"
       d="m 15.144437,251.94364 1.893134,1.89314 c 1.567958,1.56795 4.092607,1.56796 5.660564,0 l 3.163678,-3.16368 c 1.567958,-1.56797 1.567579,-4.09223 -3.79e-4,-5.66019 L 23.9683,243.11978 Z"
       style="opacity:0.5;vector-effect:none;fill:#501616;fill-opacity:1;fill-rule:nonzero;stroke:none;stroke-width:2.7011404;stroke-linecap:round;stroke-linejoin:round;stroke-miterlimit:4;stroke-dasharray:none;stroke-dashoffset:0;stroke-opacity:1"
       inkscape:connector-curvature="0" />
    <path
       style="opacity:0.5;vector-effect:none;fill:#501616;fill-opacity:1;fill-rule:nonzero;stroke:none;stroke-width:0.42576095;stroke-linecap:round;stroke-linejoin:round;stroke-miterlimit:4;stroke-dasharray:none;stroke-dashoffset:0;stroke-opacity:1"
       d="m 21.942586,263.3844 c -1.17996,1.41975 -0.100073,4.58946 0.637384,5.09293 l 13.469168,16.35854 c 1.240994,1.5075 3.935941,1.4007 5.569398,-0.23275 l 15.010925,-15.01093 c 0.920902,-0.9209 1.356465,-5.0629 1.291061,-6.20779 z"
       id="path4738"
       inkscape:connector-curvature="0"
       sodipodi:nodetypes="cccsscc" />
    <path
       inkscape:connector-curvature="0"
       style="opacity:1;vector-effect:none;fill:url(#linearGradient5192);fill-opacity:1;fill-rule:nonzero;stroke:none;stroke-width:3.20007539;stroke-linecap:round;stroke-linejoin:round;stroke-miterlimit:4;stroke-dasharray:none;stroke-dashoffset:0;stroke-opacity:1"
       d="m 40.579269,246.96377 -21.572841,21.63864 c 0.24659,0.69639 0.602218,1.35226 1.077882,1.93007 l 13.466439,16.35855 c 0.255082,0.30987 0.533943,0.5852 0.83043,0.82934 l 25.330737,-25.40741 c -0.235488,-0.28069 -0.500494,-0.54396 -0.79563,-0.78693 L 42.557194,248.05906 c -0.591222,-0.48672 -1.26347,-0.8482 -1.977925,-1.09529 z"
       id="rect4743" />
    <path
       inkscape:connector-curvature="0"
       style="opacity:1;vector-effect:none;fill:#913d00;fill-opacity:1;fill-rule:nonzero;stroke:none;stroke-width:2.42345166;stroke-linecap:round;stroke-linejoin:round;stroke-miterlimit:4;stroke-dasharray:none;stroke-dashoffset:0;stroke-opacity:1"
       d="m 39.560122,254.33001 c -0.480783,0.0144 -0.941874,0.21149 -1.240488,0.56994 -0.302979,0.36364 -0.273019,0.40757 -0.608551,0.0152 -0.302028,-0.35307 -0.788803,-0.50583 -1.267669,-0.49217 -0.48296,0.0144 -0.914353,0.22283 -1.221448,0.54873 -0.307095,0.32589 -0.489726,0.76895 -0.47533,1.2519 0.02033,0.67476 0.419781,1.24886 0.988139,1.52383 0.829567,0.39211 0.929667,-0.0168 0.954977,1.1154 v 0.01 c 0.999835,-0.0394 1.999959,0.17464 2.911702,0.66021 l -0.01793,-0.60801 c -0.03599,-1.20826 -0.15401,-1.00532 0.860888,-1.30628 0.562826,-0.30476 0.937271,-0.9084 0.916906,-1.59181 -0.02884,-0.96587 -0.835302,-1.72557 -1.80118,-1.69676 z m -2.87307,5.24529 c -1.357356,0.0605 -2.714712,0.6623 -3.79652,1.74408 -2.163978,2.16357 -2.406279,5.4292 -0.242552,7.59302 1.072982,1.06817 2.535812,1.65232 4.049402,1.61464 l 2.300415,2.30042 c 0.39052,-0.0693 0.785146,-0.18511 1.175772,-0.34533 l -1.040357,-1.0409 c -0.136969,-0.13697 -0.136946,-0.35685 0,-0.4938 l 0.152273,-0.15228 c 0.136969,-0.13698 0.35739,-0.13696 0.494345,0 l 1.259522,1.25952 c 0.371535,-0.21858 0.728157,-0.47503 1.062108,-0.76354 l -1.313359,-1.31336 c -0.136957,-0.13697 -0.136988,-0.35845 0,-0.49543 l 0.227867,-0.22787 c 0.136947,-0.13695 0.357388,-0.13642 0.494346,5.6e-4 l 1.318254,1.31825 c 0.253561,-0.28817 0.483227,-0.5942 0.685232,-0.91255 l -1.299765,-1.29977 c -0.136966,-0.13698 -0.136412,-0.35793 5.57e-4,-0.49489 l 0.151732,-0.15173 c 0.136977,-0.13697 0.357376,-0.13751 0.494345,-5.5e-4 l 1.104527,1.10452 c 0.207888,-0.45914 0.354876,-0.9271 0.436699,-1.38895 l -2.299875,-2.29933 c 0.03767,-1.51543 -0.547306,-2.98057 -1.618452,-4.0532 -1.081819,-1.08178 -2.439166,-1.56206 -3.796489,-1.50153 z m 2.180225,2.88341 c 0.371669,8e-5 0.743243,0.14165 1.02676,0.42528 0.566866,0.56711 0.566846,1.48642 0,2.05352 -0.567109,0.56683 -1.486412,0.56685 -2.053506,0 -0.567273,-0.56705 -0.567579,-1.48679 0,-2.05406 0.283642,-0.28352 0.655634,-0.42481 1.027303,-0.42474 z m -11.073567,0.71678 c -0.48296,-0.0143 -0.925991,0.16824 -1.251909,0.47531 v 0 c -0.325918,0.30706 -0.534889,0.73849 -0.549257,1.22145 -0.01364,0.4789 0.139055,0.96567 0.492176,1.26768 0.392327,0.33552 0.348946,0.30609 -0.01476,0.60909 -0.35844,0.29861 -0.55555,0.75971 -0.569946,1.24049 -0.02882,0.96591 0.730914,1.77184 1.696778,1.80064 0.68344,0.0204 1.287049,-0.35408 1.591805,-0.91691 0.30097,-1.01489 0.0981,-0.89686 1.306289,-0.86089 l 0.608009,0.0185 c -0.485438,-0.91158 -0.699449,-1.91211 -0.660217,-2.91169 l -0.0103,-5.6e-4 c -1.132207,-0.0252 -0.723897,-0.12537 -1.115945,-0.95497 -0.274963,-0.56837 -0.849058,-0.96802 -1.523837,-0.98815 z m 20.077837,0.59658 c -0.683417,-0.0204 -1.287054,0.35407 -1.591805,0.91691 -0.300969,1.0149 -0.09803,0.89742 -1.306289,0.86143 l -1.473249,-0.0435 1.411794,1.41233 a 0.72186971,0.72186971 0 0 1 0.200677,0.63629 c -0.05241,0.29596 -0.13002,0.5909 -0.227324,0.88373 l 0.150097,0.004 c 1.132209,0.0253 0.722806,0.12592 1.114862,0.95551 0.274946,0.56842 0.849601,0.96804 1.524369,0.98815 0.965909,0.0288 1.771927,-0.73083 1.800637,-1.69676 0.01367,-0.47891 -0.139065,-0.96569 -0.49217,-1.26768 -0.392372,-0.33552 -0.348425,-0.30659 0.01523,-0.60964 0.358463,-0.29857 0.555531,-0.75916 0.569938,-1.23994 0.02884,-0.96589 -0.730886,-1.77239 -1.696764,-1.80118 z M 35.481893,265.843 c 0.371778,-1e-5 0.743722,0.14211 1.027317,0.42582 0.567022,0.56729 0.566715,1.487 0,2.05406 -0.567022,0.56723 -1.486219,0.56701 -2.05352,0 -0.567412,-0.5672 -0.567384,-1.48686 0,-2.05406 0.283623,-0.28371 0.65501,-0.42582 1.02676,-0.42582 z m 2.918231,0.98651 2.192196,0.5868 -1.604313,1.60485 z m -1.322611,5.09845 0.04405,1.47433 c 0.036,1.20825 0.153478,1.00532 -0.86142,1.3063 -0.562845,0.30477 -0.936739,0.9084 -0.916357,1.5918 0.02882,0.96587 0.834745,1.72555 1.800638,1.69677 v 0 c 0.480788,-0.0143 0.941436,-0.21153 1.239944,-0.56994 0.302991,-0.36369 0.274139,-0.40761 0.609638,-0.0152 0.302024,0.35307 0.788802,0.50582 1.26768,0.49217 0.965939,-0.0287 1.725577,-0.83472 1.696764,-1.80063 -0.0201,-0.67476 -0.419756,-1.24886 -0.988148,-1.52383 -0.829564,-0.3921 -0.930187,0.0167 -0.955517,-1.1154 l -0.0043,-0.15445 c -0.29373,0.0978 -0.589816,0.17572 -0.88645,0.22841 a 0.72186971,0.72186971 0 0 1 -0.63683,-0.20013 z"
       id="path4748" />
    <path
       inkscape:connector-curvature="0"
       id="path4824"
       d="m -275.45923,102.0615 c -0.3097,0.29178 -0.50813,0.70171 -0.5218,1.16063 -0.013,0.45506 0.13211,0.91752 0.46765,1.20449 0.37282,0.31882 0.33133,0.29078 -0.0142,0.5787 -0.34061,0.28374 -0.52789,0.72195 -0.54157,1.1788 -0.0274,0.91783 0.69464,1.68391 1.61243,1.71127 0.64942,0.0194 1.22286,-0.33644 1.51244,-0.87125 0.28599,-0.96437 0.0932,-0.85247 1.24126,-0.81829 l 0.57791,0.0174 c -0.46127,-0.8662 -0.66461,-1.8169 -0.62733,-2.76673 l -0.01,-1.6e-4 c -1.07584,-0.024 -0.68762,-0.11933 -1.06017,-0.90764 -0.26128,-0.54008 -0.80681,-0.91971 -1.44799,-0.93884 -0.45892,-0.0136 -0.87977,0.16005 -1.18947,0.45183 z m 8.2472,-8.247178 c -0.2918,0.30967 -0.46552,0.730551 -0.45183,1.189465 0.0192,0.641173 0.39875,1.186719 0.93884,1.447997 0.78827,0.372591 0.88357,-0.01564 0.90764,1.060175 l -2.3e-4,0.009 c 0.95006,-0.0374 1.90076,0.166356 2.76712,0.627755 l -0.0174,-0.57794 c -0.0342,-1.148117 -0.1461,-0.95527 0.81828,-1.241251 0.53481,-0.289582 0.89059,-0.863048 0.87124,-1.512437 -0.0274,-0.91779 -0.79346,-1.639805 -1.71126,-1.612435 -0.45685,0.01367 -0.89505,0.200951 -1.1788,0.541564 -0.2879,0.345539 -0.25988,0.387038 -0.57871,0.01423 -0.287,-0.335496 -0.74944,-0.48062 -1.20449,-0.467646 -0.45891,0.01366 -0.8688,0.212132 -1.16061,0.521809 z m -2.21526,6.031522 c -2.05627,2.055876 -2.2865,5.159366 -0.23047,7.215476 1.01958,1.015 2.40924,1.56995 3.84749,1.53415 l 2.18602,2.18602 c 0.37108,-0.0659 0.74632,-0.17623 1.1175,-0.32848 l -0.98865,-0.98865 c -0.13015,-0.13015 -0.13013,-0.33949 0,-0.46963 l 0.14469,-0.14468 c 0.13015,-0.13016 0.33948,-0.13016 0.46962,-10e-6 l 1.19698,1.19698 c 0.35304,-0.2077 0.69189,-0.45123 1.00922,-0.72538 l -1.24837,-1.24837 c -0.13014,-0.13015 -0.13017,-0.34025 0,-0.47042 l 0.21662,-0.21662 c 0.13013,-0.13013 0.33986,-0.12974 0.47,4.1e-4 l 1.25271,1.25271 c 0.24094,-0.27383 0.45913,-0.56438 0.65108,-0.86689 l -1.23532,-1.23532 c -0.13015,-0.13016 -0.12975,-0.33988 3.9e-4,-0.47002 l 0.14428,-0.14428 c 0.13016,-0.13016 0.33986,-0.13054 0.47001,-3.9e-4 l 1.04914,1.04913 c 0.19754,-0.43629 0.33732,-0.88067 0.41507,-1.31953 l -2.18523,-2.18523 c 0.0358,-1.43999 -0.5199,-2.83179 -1.53773,-3.851028 -2.05594,-2.055856 -5.15912,-1.825797 -7.21505,0.230052 z m 1.48632,4.703306 c 0.53898,-0.53917 1.41304,-0.53918 1.95202,-1e-5 0.53879,0.53905 0.53861,1.4128 -4.1e-4,1.95163 -0.53881,0.539 -1.41257,0.53919 -1.95161,4e-4 -0.53917,-0.53897 -0.53916,-1.41305 0,-1.95202 z m 3.21659,-3.21658 c 0.53905,-0.5388 1.41279,-0.53862 1.9516,4e-4 0.53865,0.53888 0.53864,1.41234 1e-5,1.95121 -0.53888,0.53862 -1.41233,0.53863 -1.95121,0 -0.53901,-0.53882 -0.5392,-1.41257 -4e-4,-1.95161 z m 0.53247,3.74945 2.08285,0.55777 -1.52468,1.52469 z m -1.25706,4.84483 0.0419,1.40096 c 0.0342,1.1481 0.14609,0.95525 -0.81829,1.24124 -0.53482,0.2896 -0.8906,0.86306 -0.87124,1.51244 0.0274,0.91779 0.79348,1.63978 1.71127,1.61243 l 4e-4,-4e-4 c 0.45685,-0.0136 0.89474,-0.2006 1.17839,-0.54117 0.28791,-0.34558 0.26033,-0.38745 0.57913,-0.0146 0.28699,0.33549 0.74946,0.48059 1.2045,0.46762 0.91786,-0.0273 1.63981,-0.79342 1.61243,-1.71125 -0.0191,-0.64117 -0.39874,-1.18672 -0.93884,-1.448 -0.78827,-0.37259 -0.88396,0.016 -0.90803,-1.05979 l -0.004,-0.14665 c -0.27911,0.0929 -0.56053,0.16697 -0.8424,0.21704 a 0.68593738,0.68593738 0 0 1 -0.60519,-0.19014 z m 6.10305,-6.10153 1.34166,1.34166 a 0.68593738,0.68593738 0 0 1 0.19053,0.60483 c -0.0498,0.28123 -0.12376,0.56175 -0.21622,0.84 l 0.14267,0.004 c 1.07585,0.024 0.68725,0.11973 1.05979,0.90803 0.26126,0.54012 0.80682,0.91973 1.448,0.93884 0.91783,0.0274 1.68397,-0.69457 1.71125,-1.61242 0.013,-0.45507 -0.13211,-0.91753 -0.46764,-1.20449 -0.37284,-0.31882 -0.33095,-0.29116 0.0146,-0.57913 0.34062,-0.28371 0.52749,-0.72154 0.54118,-1.17839 0.0274,-0.91781 -0.69427,-1.6843 -1.61207,-1.71166 -0.6494,-0.0194 -1.22286,0.33644 -1.51244,0.87126 -0.28599,0.96438 -0.0935,0.85286 -1.24162,0.81866 z"
       style="opacity:0.522;vector-effect:none;fill:#913d00;fill-opacity:1;fill-rule:nonzero;stroke:#000000;stroke-width:0.50300002;stroke-linecap:round;stroke-linejoin:round;stroke-miterlimit:4;stroke-dasharray:none;stroke-dashoffset:0;stroke-opacity:1;filter:url(#filter4890)"
       clip-path="url(#clipPath4897)"
       transform="matrix(1.0523843,0,0,1.0523843,316.43178,156.24291)" />
    <path
       inkscape:connector-curvature="0"
       style="color:#000000;clip-rule:nonzero;display:inline;overflow:visible;visibility:visible;opacity:0.45;isolation:auto;mix-blend-mode:normal;color-interpolation:sRGB;color-interpolation-filters:linearRGB;solid-color:#000000;solid-opacity:1;fill:#ffffff;fill-opacity:1;fill-rule:evenodd;stroke:none;stroke-width:0.99999994px;stroke-linecap:butt;stroke-linejoin:miter;stroke-miterlimit:4;stroke-dasharray:none;stroke-dashoffset:0;stroke-opacity:1;filter:url(#filter5355);color-rendering:auto;image-rendering:auto;shape-rendering:auto;text-rendering:auto;enable-background:accumulate"
       d="m -1040.5488,302.22266 c -2.329,0.0948 -3.3807,3.24078 -1.7735,6.45507 2.1428,4.28571 3.4213,6.79295 3.5723,8.57227 0.5051,5.95259 3.5711,3.21347 4.6426,1.42773 1.0714,-1.78569 0.5494,-12.20758 -3.7364,-15.42187 -1.009,-0.75677 -1.9287,-1.06481 -2.705,-1.0332 z m 41.76755,29.18554 c -8.43175,0.16947 -15.52925,3.52176 -13.77925,9.52149 2.5,8.57143 10.5658,1.78069 17.35152,3.5664 6.78572,1.78571 55.20815,41.5957 61.63671,44.09571 6.42857,2.5 3.21485,-4.28711 3.21485,-4.28711 0,0 -55.82459,-53.14972 -68.42383,-52.89649 z"
       transform="matrix(0.27844334,0,0,0.27844334,316.43178,156.24291)"
       id="path5202" />
    <path
       style="color:#000000;clip-rule:nonzero;display:inline;overflow:visible;visibility:visible;opacity:1;isolation:auto;mix-blend-mode:normal;color-interpolation:sRGB;color-interpolation-filters:linearRGB;solid-color:#000000;solid-opacity:1;fill:#ffffff;fill-opacity:1;fill-rule:evenodd;stroke:none;stroke-width:0.27844334px;stroke-linecap:butt;stroke-linejoin:miter;stroke-miterlimit:4;stroke-dasharray:none;stroke-dashoffset:0;stroke-opacity:1;color-rendering:auto;image-rendering:auto;shape-rendering:auto;text-rendering:auto;enable-background:accumulate"
       d="m 27.450913,240.68242 c -1.12383,-0.84287 -1.843272,0.31643 -1.246591,1.50976 0.596649,1.19333 0.952387,1.89122 0.99443,2.38666 0.14063,1.65746 0.99445,0.895 1.292791,0.39777 0.29833,-0.49721 0.152701,-3.39919 -1.04063,-4.29419 z"
       id="path5198"
       inkscape:connector-curvature="0"
       sodipodi:nodetypes="scsss" />
    <path
       style="color:#000000;clip-rule:nonzero;display:inline;overflow:visible;visibility:visible;opacity:1;isolation:auto;mix-blend-mode:normal;color-interpolation:sRGB;color-interpolation-filters:linearRGB;solid-color:#000000;solid-opacity:1;fill:#ffffff;fill-opacity:1;fill-rule:evenodd;stroke:none;stroke-width:0.27844334px;stroke-linecap:butt;stroke-linejoin:miter;stroke-miterlimit:4;stroke-dasharray:none;stroke-dashoffset:0;stroke-opacity:1;color-rendering:auto;image-rendering:auto;shape-rendering:auto;text-rendering:auto;enable-background:accumulate"
       d="m 34.490838,251.17231 c -0.487254,-1.67059 1.489356,-2.60368 3.83712,-2.65087 3.508175,-0.0705 19.05207,14.72875 19.05207,14.72875 0,0 0.89499,1.88944 -0.895,1.19333 -1.78999,-0.69611 -15.27319,-11.78059 -17.16263,-12.27781 -1.889441,-0.49722 -4.13545,1.39325 -4.83156,-0.9934 z"
       id="path5200"
       inkscape:connector-curvature="0"
       sodipodi:nodetypes="sscsss" />
  </g>
</svg>
